<svg xmlns="http://www.w3.org/2000/svg" version="1.1" xmlns:xlink="http://www.w3.org/1999/xlink" xmlns:svgjs="http://svgjs.dev/svgjs" width="1500" height="473" viewBox="0 0 1500 473"><g transform="matrix(1,0,0,1,-0.9084522071641459,-1.8656214774943862)"><svg viewBox="0 0 396 125" data-background-color="#ede1d1" preserveAspectRatio="xMidYMid meet" height="473" width="1500" xmlns="http://www.w3.org/2000/svg" xmlns:xlink="http://www.w3.org/1999/xlink"><g id="tight-bounds" transform="matrix(1,0,0,1,0.24008861730862918,0.4930289316845631)"><svg viewBox="0 0 395.52 124.0138050083155" height="124.0138050083155" width="395.52"><g><svg viewBox="0 0 395.52 124.0138050083155" height="124.0138050083155" width="395.52"><g><svg viewBox="0 0 395.52 124.0138050083155" height="124.0138050083155" width="395.52"><g id="textblocktransform"><svg viewBox="0 0 395.52 124.0138050083155" height="124.0138050083155" width="395.52" id="textblock"><g><svg viewBox="0 0 395.52 124.0138050083155" height="124.0138050083155" width="395.52"><path d="M394.594 26.599C392.735 13.726 387.435 10.147 387.435 10.147 371.165-3.111 350.86-0.254 332.619 1.652 300.414 1.729 268.339 4.561 236.208 6.08 168.767 6.311 100.749 2.501 33.643 11.898 27.339 14.782-6.54 12.464 1.121 28.246 3.129 34.811 10.456 42.097 10.232 48.122 11.236 49.177 12.631 46.757 13.226 48.276 15.309 52.37 18.711 50.439 21.501 52.859 17.614 59.321 20.403 64.701 23.062 70.34 18.377 71.807 12.371 71.112 9.675 75.978 9.396 79.505 7.89 78.836 6.235 78.681 5.026 78.578 2.59 78.964 2.999 80.071 4.394 83.856-1.594 86.044 2.162 89.752-0.422 93.768 3.948 97.243 3.353 101.594 3.278 102.47 3.687 103.216 4.338 103.422 7.22 104.529 3.018 106.692 3.464 109.035 33.029 125.048 65.104 113.978 95.394 121.341 103.259 116.192 97.346 123.169 100.489 122.087 102.943 120.826 104.728 126.052 107.499 123.092 107.927 122.242 107.276 120.234 108.8 120.62 109.6 120.826 110.307 120.774 110.418 119.59 110.586 117.814 109.117 118.921 108.726 117.994 112.947 113.308 111.906 124.456 115.866 123.993 115.68 122.628 114.528 120.671 116.889 120.929 119.232 118.972 119.306 117.35 121.389 121.753 121.463 122.705 121.835 123.375 122.43 123.838 128.938 119.05 135.409 125.537 142.233 123.375 146.417 121.006 150.433 124.662 154.672 123.761 156.16 123.04 157.666 121.753 159.098 123.915 176.632 124.379 195.319 122.448 211.943 123.993 256.364 121.109 303.836 125.177 350.674 121.367 361.719 119.899 373.192 117.814 383.958 116.14 383.958 116.14 392.679 111.558 392.679 90.962S394.538 72.94 394.817 56.54C395.096 40.141 396.398 39.471 394.538 26.599Z" opacity="1" fill="#6a704c" data-fill-palette-color="tertiary"></path><g transform="matrix(1,0,0,1,55.76832,26.230666666666668)"><svg width="283.98335999999995" viewBox="0.7 -34.75 140.28 35.35" height="71.55247167498216" data-palette-color="#ede1d1"><path d="M9.8 0.4L9.8 0.4Q6.7 0.4 4.67-0.38 2.65-1.15 1.68-3.08 0.7-5 0.7-8.45L0.7-8.45 0.7-9.4 9.05-9.4 9.05-7.2Q9.05-5.5 9.25-4.78 9.45-4.05 10.1-4.05L10.1-4.05Q10.7-4.05 10.9-4.55L10.9-4.55Q11.1-5 11.1-6.8L11.1-6.8Q11.1-8.45 10.55-9.35 10-10.25 8.83-10.88 7.65-11.5 5.75-12.3L5.75-12.3Q2.95-13.55 1.95-15.63 0.95-17.7 0.95-21.1L0.95-21.1Q0.95-24.3 1.83-26.18 2.7-28.05 4.7-28.85 6.7-29.65 10.1-29.65L10.1-29.65Q19.2-29.65 19.2-22.45L19.2-22.45 19.2-19.15 11.25-19.15 11.25-19.95Q11.25-20.95 11.23-21.75 11.2-22.55 11.15-23.05L11.15-23.05Q11-24.05 10.2-24.05L10.2-24.05Q9.55-24.05 9.38-23.25 9.2-22.45 9.2-21.35L9.2-21.35Q9.2-19.95 9.73-19.23 10.25-18.5 11.2-18.1 12.15-17.7 13.3-17.25L13.3-17.25Q15.65-16.4 17-15.48 18.35-14.55 18.95-12.98 19.55-11.4 19.55-8.55L19.55-8.55Q19.55-3.65 17-1.63 14.45 0.4 9.8 0.4ZM10.05-1.95L10.05-1.95Q10.6-1.95 11.28-2 11.95-2.05 12.35-2.15L12.35-2.15Q14.1-2.55 14.88-3.85 15.65-5.15 15.65-8L15.65-8Q15.65-10.4 14.73-11.83 13.8-13.25 11.8-13.95L11.8-13.95 10.25-14.5 8.8-15.2Q6.9-16.15 6.18-17.53 5.45-18.9 5.45-21.05L5.45-21.05Q5.45-23.6 6.08-24.88 6.7-26.15 8.4-26.5L8.4-26.5Q8.8-26.6 9.28-26.65 9.75-26.7 10.25-26.7L10.25-26.7Q11.15-26.7 11.8-26.55L11.8-26.55Q13.65-26.25 14.38-24.98 15.1-23.7 15.1-21.05L15.1-21.05 15.25-21.05Q15.4-23.9 14.63-25.15 13.85-26.4 11.8-26.7L11.8-26.7Q11.45-26.75 11.05-26.78 10.65-26.8 10.25-26.8L10.25-26.8Q9.15-26.8 8.4-26.65L8.4-26.65Q6.5-26.3 5.65-25.03 4.8-23.75 4.8-21.05L4.8-21.05Q4.8-16.6 8.7-15L8.7-15 10.2-14.4 11.7-13.75Q13.65-12.9 14.35-11.6 15.05-10.3 15.05-8L15.05-8Q15.05-5.3 14.48-3.98 13.9-2.65 12.3-2.3L12.3-2.3Q11.9-2.2 11.25-2.13 10.6-2.05 10.05-2.05L10.05-2.05Q9.65-2.05 9.03-2.1 8.4-2.15 8.05-2.25L8.05-2.25Q6.25-2.6 5.58-3.9 4.9-5.2 4.9-8.05L4.9-8.05 4.75-8.05Q4.6-5.05 5.33-3.73 6.05-2.4 8-2.1L8-2.1Q8.35-2.05 9-2 9.65-1.95 10.05-1.95ZM29.3 0L21.5 0 21.5-31.5 29.3-31.5 29.3 0ZM25-16.65L25.2-2.35 25.4-2.35 25.65-16.65 25.45-29.55 25.25-29.55 25-16.65ZM35.64-27.4L35.64-27.4Q34.05-27.4 32.95-28.48 31.84-29.55 31.84-31.05L31.84-31.05Q31.84-32.6 32.95-33.68 34.05-34.75 35.64-34.75L35.64-34.75Q37.24-34.75 38.39-33.68 39.55-32.6 39.55-31.05L39.55-31.05Q39.55-29.55 38.39-28.48 37.24-27.4 35.64-27.4ZM35.7-29.2L35.7-29.2Q37.55-29.2 37.55-31.05L37.55-31.05Q37.55-32.9 35.7-32.9L35.7-32.9Q33.84-32.9 33.84-31.05L33.84-31.05Q33.84-29.2 35.7-29.2ZM35.7-29.3L35.7-29.3Q34.99-29.3 34.55-29.83 34.09-30.35 34.09-31.05L34.09-31.05Q34.09-31.8 34.55-32.27 34.99-32.75 35.7-32.75L35.7-32.75Q36.39-32.75 36.82-32.27 37.24-31.8 37.24-31.05L37.24-31.05Q37.24-30.35 36.82-29.83 36.39-29.3 35.7-29.3ZM39.59 0L31.79 0 31.79-24.75 39.59-24.75 39.59 0ZM35.34-12L35.55-2.35 35.74-2.35 35.99-12 35.8-21.45 35.59-21.45 35.34-12ZM48.64 0.35L48.64 0.35Q46.34 0.35 44.84-0.25 43.34-0.85 42.59-2.58 41.84-4.3 41.84-7.7L41.84-7.7 41.84-19.55Q41.84-21.7 42.64-22.88 43.44-24.05 44.64-24.53 45.84-25 47.09-25L47.09-25Q49.09-25 49.99-24.35 50.89-23.7 51.34-23L51.34-23 51.34-31.5 59.14-31.5 59.14 0 53.89 0 53.09-2.35Q52.59-1.55 51.59-0.6 50.59 0.35 48.64 0.35ZM54.94-16.65L55.19-2.35 55.39-2.35 55.59-16.65 55.34-29.55 55.14-29.55 54.94-16.65ZM50.69-1.9L50.69-1.9 50.69-2Q50.34-1.85 50.02-1.8 49.69-1.75 49.34-1.75L49.34-1.75Q47.94-1.75 46.97-2.98 45.99-4.2 46.04-6.25L46.04-6.25 46.19-12.25 46.04-19.15Q45.99-20.55 46.69-21.5 47.39-22.45 48.64-22.45L48.64-22.45Q48.94-22.45 49.27-22.38 49.59-22.3 49.94-22.2L49.94-22.2 49.94-22.3Q49.54-22.45 49.17-22.5 48.79-22.55 48.49-22.55L48.49-22.55Q47.09-22.55 46.39-21.58 45.69-20.6 45.64-19.15L45.64-19.15 45.44-12.25 45.64-6.1Q45.74-3.95 46.74-2.78 47.74-1.6 49.19-1.6L49.19-1.6Q49.94-1.6 50.69-1.9ZM50.49-4L50.49-4Q50.89-4 51.12-4.33 51.34-4.65 51.34-5.5L51.34-5.5 51.34-20.25 51.09-20.3Q50.94-20.35 50.79-20.38 50.64-20.4 50.49-20.4L50.49-20.4Q50.09-20.4 49.87-20.08 49.64-19.75 49.64-18.9L49.64-18.9 49.64-5.5Q49.64-4.65 49.87-4.33 50.09-4 50.49-4ZM70.04 0.6L70.04 0.6Q67.09 0.6 65.17-0.08 63.24-0.75 62.31-2.68 61.39-4.6 61.39-8.3L61.39-8.3 61.39-18.65Q61.39-22.35 63.64-23.75 65.89-25.15 70.04-25.15L70.04-25.15Q74.19-25.15 76.44-23.75 78.69-22.35 78.69-18.65L78.69-18.65 78.69-11.65 69.19-11.65 69.19-4.9Q69.19-4.05 69.42-3.73 69.64-3.4 70.04-3.4L70.04-3.4Q70.44-3.4 70.67-3.73 70.89-4.05 70.89-4.9L70.89-4.9 70.89-9.4 78.69-9.4 78.69-8.35Q78.69-4.65 77.77-2.7 76.84-0.75 74.94-0.08 73.04 0.6 70.04 0.6ZM74.54-19.1L74.54-13.35 74.94-13.35 74.94-19.1Q74.94-20.75 74.06-21.83 73.19-22.9 71.39-22.9L71.39-22.9 71.39-22.8Q73.14-22.8 73.84-21.73 74.54-20.65 74.54-19.1L74.54-19.1ZM68.19-1.65L68.19-1.65 68.19-1.75Q67.09-1.75 66.19-2.7 65.29-3.65 65.34-5.1L65.34-5.1 65.49-12.25 65.34-19.45Q65.29-20.9 66.47-21.83 67.64-22.75 69.04-22.75L69.04-22.75 69.04-22.85Q67.29-22.85 66.14-21.93 64.99-21 64.94-19.15L64.94-19.15 64.79-12.25 64.94-5.15Q64.99-3.6 66.04-2.63 67.09-1.65 68.19-1.65ZM69.19-19.65L69.19-15 70.89-15 70.89-19.65Q70.89-20.5 70.67-20.83 70.44-21.15 70.04-21.15L70.04-21.15Q69.64-21.15 69.42-20.83 69.19-20.5 69.19-19.65L69.19-19.65ZM70.99-1.75L70.99-1.65Q72.79-1.65 73.87-2.83 74.94-4 74.94-5.65L74.94-5.65 74.94-8.2 74.54-8.2 74.54-5.65Q74.54-4.1 73.64-2.93 72.74-1.75 70.99-1.75L70.99-1.75ZM93.74 0L84.39 0 79.44-24.75 87.49-24.75 89.54-9.2 91.24-24.75 98.64-24.75 93.74 0ZM85.24-13.45L87.34-2.35 87.49-2.35 85.84-13.5 84.09-23.3 83.89-23.3 85.24-13.45ZM92.79-13.5L91.24-2.35 91.39-2.35 93.44-13.5 94.54-23.3 94.34-23.3 92.79-13.5ZM104.94 0.55L104.94 0.55Q103.34 0.55 102.23-0.53 101.14-1.6 101.14-3.1L101.14-3.1Q101.14-4.65 102.23-5.73 103.34-6.8 104.94-6.8L104.94-6.8Q106.54-6.8 107.69-5.73 108.84-4.65 108.84-3.1L108.84-3.1Q108.84-1.6 107.69-0.53 106.54 0.55 104.94 0.55ZM104.94-1.25L104.94-1.25Q106.79-1.25 106.79-3.1L106.79-3.1Q106.79-4.95 104.94-4.95L104.94-4.95Q103.09-4.95 103.09-3.1L103.09-3.1Q103.09-1.25 104.94-1.25ZM104.94-1.35L104.94-1.35Q104.23-1.35 103.79-1.88 103.34-2.4 103.34-3.1L103.34-3.1Q103.34-3.85 103.79-4.33 104.23-4.8 104.94-4.8L104.94-4.8Q105.64-4.8 106.06-4.33 106.48-3.85 106.48-3.1L106.48-3.1Q106.48-2.4 106.06-1.88 105.64-1.35 104.94-1.35ZM120.13 0L111.48 0 115.73-29.55 127.48-29.55 131.63 0 122.68 0 122.28-4.3 120.43-4.3 120.13 0ZM116.98-15.05L115.58-2.35 115.78-2.35 115.93-3.4Q116.03-3.95 116.08-4.6L116.08-4.6 116.23-6.15 121.38-6.2 126.48-6.15 126.88-2.35 127.13-2.35 125.93-14.95 124.38-27.45 121.53-27.35 118.93-27.45 116.98-15.05ZM126.43-6.35L121.38-6.25 116.28-6.35 117.53-15 119.13-27.25 121.53-27.3 124.18-27.25 125.33-14.95 126.43-6.35ZM121.38-23.3L120.48-8.15 122.28-8.15 121.38-23.3ZM140.98 0L133.03 0 133.03-29.55 140.98-29.55 140.98 0ZM136.58-15L136.78-2.35 136.98-2.35 137.23-15 137.03-27.35 136.83-27.35 136.58-15Z" opacity="1" transform="matrix(1,0,0,1,0,0)" fill="#ede1d1" class="wordmark-text-0" data-fill-palette-color="quaternary" id="text-0"></path></svg></g></svg></g></svg></g></svg></g><g></g></svg></g><defs></defs></svg><rect width="395.52" height="124.0138050083155" fill="none" stroke="none" visibility="hidden"></rect></g></svg></g></svg>